<?xml version="1.0" encoding="UTF-8" standalone="no"?>
<!-- Created with Inkscape (http://www.inkscape.org/) -->

<svg
   width="173.00635mm"
   height="216.27034mm"
   viewBox="0 0 173.00635 216.27034"
   version="1.1"
   id="svg1"
   xmlns="http://www.w3.org/2000/svg"
   xmlns:svg="http://www.w3.org/2000/svg">
  <defs
     id="defs1" />
  <g
     id="layer1"
     transform="translate(-2.6870706,187.44878)">
    <path
       id="path95"
       fill="#ffffff"
       d="m 148.00943,16.737753 0.46733,-2.89898 c -1.66313,0.002 -2.97254,-0.18248 -3.92377,-3.83154 l -3.45684,8.13276 c 3.00832,0.65475 5.06289,-0.0926 6.91328,-1.40227 z"
       style="fill:#f1f1f8;fill-opacity:1;stroke-width:0.264583" />
    <path
       id="path96"
       fill="#ffffff"
       d="m 26.912025,-161.12998 c 1.58971,4.85865 4.6191,6.07343 7.5636,6.38919 l 0.002,6.43882 -9.72,0.74475 c -2.89904,0.60502 -3.74603,-2.13983 -5.27865,-10.98442 0,0 7.40436,-2.51475 7.43265,-2.58832 z"
       style="fill:#f1f1f8;fill-opacity:1;stroke-width:0.264583" />
    <path
       id="path97"
       fill="#ffffff"
       d="m 23.104145,-145.45527 c 1.15283,8.49818 4.8777,9.27862 7.35944,9.87179 l -0.0854,1.12688 -2.6856,0.5196 0.17326,3.46371 19.140829,-4.15629 -4.67837,-8.74733 c 1.76288,-5.96437 1.9359,-11.50644 -2.50995,-18.88006 l -10.567059,-1.03912 c 2.62635,7.45913 5.658379,5.90031 8.139829,6.32242 l -0.77828,10.47931 -13.508699,1.03905 z"
       style="fill:#f1f1f8;fill-opacity:1;stroke-width:0.264583" />
    <path
       id="path98"
       fill="#ffffff"
       d="m 42.501544,-126.22905 -1.47113,-5.11019 -9.352199,1.38555 -0.17557,5.80297 c 5.226599,0.9633 8.344059,-0.3345 10.998889,-2.07833 z"
       style="fill:#f1f1f8;fill-opacity:1;stroke-width:0.264583" />
    <polygon
       id="polygon98"
       fill="#ffffff"
       points="233.706,292.021 228.461,280.893 218.319,284.165 221.915,300.53 "
       transform="matrix(0.26458333,0,0,0.26458333,-15.001145,-206.69784)"
       style="fill:#f1f1f8;fill-opacity:1" />
    <polygon
       id="polygon99"
       fill="#ffffff"
       points="349.906,149.96 244.503,165.347 244.942,183.72 338.124,170.916 "
       transform="matrix(0.26458333,0,0,0.26458333,-15.001145,-206.69784)"
       style="fill:#f1f1f8;fill-opacity:1" />
    <polygon
       id="polygon100"
       fill="#ffffff"
       points="251.702,206.917 246.143,192.848 333.865,180.08 323.391,196.767 "
       transform="matrix(0.26458333,0,0,0.26458333,-15.001145,-206.69784)"
       style="fill:#f1f1f8;fill-opacity:1" />
    <path
       id="path100"
       fill="#ffffff"
       d="m 63.796534,10.822993 c 20.92523,6.69269 34.08786,5.71059 49.316476,5.69624 l -0.39368,6.48428 c -20.336556,-0.183 -37.627446,0.40545 -61.104986,-11.00341 5.20719,-5.2904999 8.54557,-2.1473999 12.18232,-1.17713 z"
       style="fill:#f1f1f8;fill-opacity:1;stroke-width:0.264583" />
    <path
       id="path101"
       fill="#ffffff"
       d="m 56.724484,2.3748531 -0.19673,2.94428 c 22.49565,10.8210099 40.96518,9.4447499 57.173816,9.6298599 l 0.59085,-5.5018599 C 94.346994,10.834933 78.826344,11.032113 56.724644,2.3748531 Z"
       style="fill:#f1f1f8;fill-opacity:1;stroke-width:0.264583" />
    <path
       id="path102"
       fill="#ffffff"
       d="m 114.35152,-167.14422 c 3.79815,-0.66915 5.70098,0.35558 7.32129,1.90267 5.4093,-0.96075 5.83642,1.88385 6.13995,2.99159 l 6.30592,-0.7947 8.92288,-6.67154 -9.6534,-3.87194 -21.08647,3.21961 c 0.79943,1.37145 1.2525,1.85302 2.04983,3.22431 z"
       style="fill:#f1f1f8;fill-opacity:1;stroke-width:0.264583" />
    <path
       id="path103"
       fill="#ffffff"
       d="m 126.25407,14.777723 c -1.75785,2.89928 -4.29877,3.54939 -1.60635,6.53881 -3.16005,1.58962 -5.49706,1.87192 -9.06486,1.11975 2.72579,-2.4249 3.94282,-4.29414 5.23126,-7.7556 1.58948,4.57891 3.96187,1.03432 5.43996,0.0971 z"
       style="fill:#f1f1f8;fill-opacity:1;stroke-width:0.264583" />
    <path
       id="path104"
       fill="#ffffff"
       d="m 58.610434,-109.25418 c -5.68666,-1.37595 -0.57652,-5.01309 1.38563,-5.54196 l -7.27411,-6.14926 c -3.86924,0.27022 -10.88491,1.56795 -11.75071,10.74951 l 11.31914,9.16935 c 3.05798,0.78997 4.44344,-0.42233 4.76137,-1.55872 l 1.55865,-6.66893 z"
       style="fill:#f1f1f8;fill-opacity:1;stroke-width:0.264583" />
    <path
       id="path105"
       fill="#ffffff"
       d="m 54.510984,-120.8387 c -0.43193,-1.90507 0.8658,-3.20281 1.9644,-3.38796 l 8.74725,4.76401 -4.15919,3.72255 -6.55246,-5.09857 z"
       style="fill:#f1f1f8;fill-opacity:1;stroke-width:0.264583" />
    <g
       id="g116"
       transform="matrix(0.26458333,0,0,0.26458333,-15.001145,-206.69784)"
       style="fill:#f1f1f8;fill-opacity:1">
   <path
   id="path106"
   fill="#fcc917"
   d="m 222.901,238.346 24.3266,23.9318 17.028,-31.7514 c -15.7184,-6.21411 -36.9879,-50.7345 -18.6602,-86.7444 l -26.2896,-22.3007 -13.1451,30.6666 c 27.976,21.7539 26.8826,75.3931 16.7403,86.1982 z"
   style="fill:#f1f1f8;fill-opacity:1" />

   <path
   id="path107"
   fill="#fcc917"
   d="m 331.901,266.814 5.23672,16.6961 c -8.07052,-1.26425 -77.0255,9.2452 -55.8632,-51.3428 10.4732,36.6557 33.7156,33.3822 50.6265,34.6467 z"
   style="fill:#f1f1f8;fill-opacity:1" />

   <polygon
   id="polygon107"
   fill="#fcc917"
   points="110.736,180.448 122.742,184.662 130.705,222.017 122.742,230.813 93.7168,211.544 "
   style="fill:#f1f1f8;fill-opacity:1" />

   <path
   id="path108"
   fill="#fcc917"
   d="m 174.122,317.881 c 25.645,11.1728 67.2151,-9.77358 72.0218,-27.1695 l 18.9822,3.93619 -6.43805,20.0049 c -15.2708,2.98545 -48.1156,6.21383 -57.7191,53.6389 0,0 -40.0365,-11.3786 -40.4765,-11.4146 -0.43965,-0.0349 13.6295,-38.9959 13.6295,-38.9959 z"
   style="fill:#f1f1f8;fill-opacity:1" />

   <path
   id="path109"
   fill="#fcc917"
   d="m 425.193,295.625 c -12.3296,-16.6513 -25.7445,-33.6793 -61.7547,-34.6569 0,0 1.41619,13.6658 1.84819,13.7015 25.9668,0.37672 39.3908,7.57758 51.0653,21.9419 l 8.84126,-0.98646 z"
   style="fill:#f1f1f8;fill-opacity:1" />

   <path
   id="path110"
   fill="#fcc917"
   d="m 506.251,749.819 c 23.7441,1.41647 37.1591,10.2492 51.2263,22.2477 -4.52806,7.7828 -22.5417,18.7313 -43.0937,11.6569 l 8.83162,-16.9483 -5.65852,-1.41619 -16.5971,22.6055 -8.1241,4.59071 -9.19106,1.41732 22.6066,-44.1536 z"
   style="fill:#f1f1f8;fill-opacity:1" />

   <polygon
   id="polygon110"
   fill="#fcc917"
   points="486.48,547.77 481.53,570.376 455.75,529.407 "
   style="fill:#f1f1f8;fill-opacity:1" />

   <path
   id="path111"
   fill="#fcc917"
   d="m 393.225,72.7563 c 12.1045,10.8054 9.87222,22.7665 4.46457,27.985 1.94655,-1.14718 4.18734,-1.80198 6.58205,-1.80198 7.37093,0 13.333,6.23197 13.333,13.9167 0,7.69323 -5.96324,13.9164 -13.333,13.9164 -5.77417,0 -11.6484,-2.84202 -13.3427,-8.1961 l -1.30932,4.91443 39.9016,27.7705 0.70866,0.43852 4.25877,-6.31191 c -0.73446,0.26872 -1.49726,0.48359 -2.28586,0.64573 -7.71137,1.49698 -15.1807,-3.54132 -16.6873,-11.2626 -1.49726,-7.71052 3.54132,-15.1895 11.2632,-16.6876 7.56709,-1.47033 15.4845,6.44712 17.1797,13.9164 -0.13493,-0.76223 0.58309,-6.28583 0.58309,-7.08378 0,-7.86416 6.3669,-14.239 14.2299,-14.239 7.85452,0 14.2305,6.37484 14.2305,14.239 0,7.70258 -5.02044,13.72 -12.6788,13.9618 0.50286,-0.59187 -0.98561,4.24998 -0.36794,3.89991 6.84198,-3.87298 15.0012,-4.26756 20.0588,1.75748 5.04737,6.01739 6.1509,16.3644 -0.0193,21.2423 -13.2797,10.5168 -23.2682,2.23172 -23.2413,-7.74765 -0.0451,0.79767 -4.42063,7.19972 -4.42063,7.19972 l 37.1225,23.5474 7.27257,-3.42567 c -0.78038,0.0181 -1.56926,-0.0269 -2.36778,-0.13493 -7.78337,-1.10353 -13.2077,-8.29417 -12.1141,-16.0775 1.09446,-7.78337 8.29417,-13.2077 16.0773,-12.1144 7.63058,1.0766 12.9932,8.01638 12.1677,15.6288 1.61405,-6.94885 6.03496,-15.1809 18.2472,-7.11071 l -38.7799,36.7648 -115.107,-77.4819 c 0.50286,-0.31379 17.8529,-50.921297 18.2027,-50.769397 0.0989,0.08986 -0.089,-1.38954 0.17092,-1.29969 z"
   style="fill:#f1f1f8;fill-opacity:1" />

   <polygon
   id="polygon111"
   fill="#fcc917"
   points="81.3345,427.679 66.8531,427.679 111.713,393.067 166.815,442.868 137.842,444.276 104.997,432.619 116.654,420.963 108.889,417.43 "
   style="fill:#f1f1f8;fill-opacity:1" />

   <path
   id="path112"
   fill="#fcc917"
   d="m 318.155,221.981 3.92825,8.83219 10.796,-8.50904 -4.58192,18.3274 7.86331,12.1136 13.0921,-7.85452 -10.1514,14.0777 c 4.69871,8.87641 6.00832,12.473 13.8538,18.0323 3.60425,-54.3288 54.1769,-43.6677 69.7258,-25.3582 17.4677,23.286 21.0813,69.1339 -42.0095,47.9089 l -11.128,-4.58221 -9.16384,-7.20028 c 0,0 -5.02158,-4.83307 -5.45159,-4.86879 l -0.43852,7.81002 -7.20085,17.682 c 21.3863,9.85436 35.4549,12.8052 53.4603,12.8052 l -0.108,11.4146 c -30.6567,-5.85524 -77.796,-22.5425 -106.713,20.6235 l -6.21411,-0.32287 -4.25906,7.19178 7.20028,2.62658 c 0,0 -7.08378,25.5643 -7.20028,25.8511 l 52.1955,-24.4786 h 6.70706 l 0.35915,5.64917 -170.611,83.0047 -24.3717,2.47493 -55.1004,-9.54057 -25.0804,43.094 25.0804,-5.29937 3.89112,-22.9635 10.9488,2.47493 -7.7743,22.2557 27.5545,-2.12513 24.7212,-11.2989 9.18198,4.59128 -60.0415,28.9621 34.2615,48.3951 -1.40769,-50.161 6.70706,21.9059 33.9126,-29.3204 8.82369,-1.05874 c 0,0 -7.34485,20.8576 -7.41543,21.5481 -0.0712,0.68996 20.4897,7.41458 20.4897,7.41458 l -1.41676,5.29965 -20.1387,-0.35886 -14.4723,15.19 c 20.5608,1.43518 30.0923,-2.45679 45.2103,-10.599 l -2.46586,-24.0131 36.0193,-18.7223 6.71698,5.6486 -17.6649,16.2561 c 44.2244,13.0833 55.5316,-25.7698 61.0997,-40.2693 l 11.029,-3.16517 c -2.04406,17.6817 -6.35726,31.4374 -16.9475,40.9689 53.7565,-5.27159 43.1575,-42.0097 43.7939,-57.5663 l 8.83219,-6.00747 c 5.0125,20.1478 5.72939,32.1633 -6.00747,53.3435 8.90391,1.06639 18.0859,-0.69988 31.4376,-9.19077 21.2692,-20.1127 18.0856,-36.0105 21.5481,-61.4588 17.3769,28.2722 6.77877,38.8712 -0.98674,61.1269 l 97.7737,41.6597 c 1.12961,-12.6969 -5.58624,-25.0625 -20.1385,-33.2036 0.0717,-0.33166 3.18331,-4.24205 3.18331,-4.24205 36.4499,12.7332 33.7595,47.3814 23.4479,76.3248 -36.7988,86.8788 32.9978,125.714 -3.6669,157.16 63.2874,-2.81452 49.1649,-40.9598 50.1517,-59.3413 -0.41272,-0.009 52.6348,25.4288 52.6348,25.4288 11.7193,21.9161 7.12857,44.5204 -13.3512,84.7809 -21.5478,11.6569 -40.2704,20.1297 -72.4873,23.3033 l -7.05798,48.0356 18.7228,-40.2693 3.53339,-0.3498 7.05628,20.8383 19.781,-3.53225 21.1884,-27.1865 5.29937,2.11521 -14.1265,22.6074 -21.9059,29.6623 40.2693,31.4371 -8.47417,-27.9037 -12.0064,-12.3565 3.88233,-4.59184 20.4806,13.7738 26.4966,-61.8185 11.6566,31.0884 15.19,1.05874 1.76627,-3.53225 h 4.59071 l -1.41619,10.2393 -9.11877,0.0176 -0.35093,29.6637 17.5929,-25.4384 9.54057,-25.789 -19.0735,-18.7143 4.94107,-9.19077 c 15.6118,9.55077 25.1433,16.2652 28.9624,31.4385 15.6121,-13.0572 21.9688,-40.9603 -13.4226,-80.5306 23.7348,2.83323 28.3978,19.7986 35.0337,33.2124 9.19049,-20.8383 14.1316,-61.8163 -41.0321,-84.7797 l 0.35008,-33.5622 -39.2029,-12.0067 -0.70809,-5.29937 -13.7103,-6.33912 c 0.0629,-14.8221 22.2557,-46.6265 -18.0856,-79.49 46.6994,13.7903 67.1879,-14.4638 80.5397,-27.5556 49.864,12.3832 62.5788,-21.8786 63.9323,-39.5606 -12.6522,8.49997 -46.842,20.5243 -54.6877,2.8508 36.0371,-1.05789 47.3352,-6.71613 47.264,-42.4038 -14.7679,7.78394 -33.8403,11.6751 -48.0356,7.05827 -4.1692,-24.7037 -16.0055,-47.9991 -41.4989,-69.2065 0,0 -15.6557,20.4797 -15.5477,20.8395 44.4036,26.4878 38.3961,147.638 -36.4861,106.669 l -36.7359,-32.4961 -59.6645,-61.6295 c -8.72476,3.96397 -33.5982,13.1278 -57.2805,-3.27232 45.9369,8.55468 76.0479,-9.45978 75.2851,-30.4421 -23.1253,12.4724 -34.5847,8.22246 -55.6469,5.55931 l 1.96413,-6.21383 c 74.4154,2.33178 67.8696,-25.4923 69.7255,-47.4701 -9.05669,10.8411 -24.4437,19.3592 -49.434,14.0774 l 0.98645,-8.83191 c 22.3716,0.36793 60.6691,-11.0917 48.5546,-52.6615 -5.78353,13.7818 -15.0562,20.2915 -42.2243,22.9102 l -0.97767,-6.86863 c 5.89096,-3.28139 47.6759,-6.25918 38.8437,-53.0745 -12.0061,13.468 -20.8471,20.0137 -41.5786,23.5729 l -1.30932,-9.16356 c 20.7303,-5.53238 29.6802,-12.3559 38.7357,-24.8465 -0.43852,-0.036 0.65509,-28.146 0.65509,-28.146 -11.02,12.8041 -24.2189,29.1328 -53.4694,28.1112 l -0.64573,-6.21439 c 75.0614,-7.48743 15.315,-78.4857 -19.315,-18.6591 l -5.56724,0.65452 -4.26019,-4.25906 2.29606,-4.24998 -1.30932,-10.15 -58.2661,-38.9523 -16.0418,27.8243 26.5147,2.6178 0.66387,14.7322 c 0,0 -25.0985,14.4363 -25.8599,14.4 -0.77074,-0.0451 8.28482,-19.6007 8.28482,-19.6007 l -12.5442,-10.1863 -23.9669,41.2518 z"
   style="fill:#f1f1f8;fill-opacity:1" />

   <path
   id="path113"
   fill="#fcc917"
   d="m 437.432,528.797 35.6426,49.0133 -8.16832,37.1305 c -8.54504,-0.69959 -59.7906,-2.1875 -57.1816,40.8353 46.4026,20.1025 24.1299,43.1209 2.9778,51.9888 5.55931,-8.12324 7.78195,-26.6848 -11.8908,-28.218 5.56072,23.0717 12.2496,46.0797 -37.8666,59.4048 26.3531,-22.2287 10.7603,-34.8542 7.41487,-46.0361 -6.31191,24.5517 -4.08019,43.8559 -43.8117,51.9812 l 1.48847,-28.2189 -6.68098,-5.20044 -5.94567,15.5934 -18.5601,11.8817 17.0722,24.5055 -40.8353,23.0173 17.8169,-28.2166 -8.15924,-2.96901 -8.17824,7.42479 1.48819,-14.1035 -7.4245,-20.7955 -20.0497,0.73474 -17.8254,33.4284 -11.137,-2.23257 -2.22406,-5.94425 -12.6252,-6.68098 -2.232,6.68098 13.3688,10.4009 -5.20044,30.4421 -22.2738,-50.4927 53.4685,-25.994 -1.48847,-5.93603 -51.2362,21.5297 -20.7944,-17.8166 -2.22378,14.8482 -23.0264,27.4742 5.20044,-46.0366 157.429,-50.4995 9.64857,-4.45606 c 18.9383,-5.89124 -5.56866,-49.703 13.379,-63.1168 -22.6678,0.78973 -64.2464,3.75704 -37.1401,-57.9254 37.5015,39.407 104.332,9.69987 147.785,-7.42621 z"
   style="fill:#f1f1f8;fill-opacity:1" />

   <polygon
   id="polygon113"
   fill="#fcc917"
   points="189.401,692.171 209.451,684.738 172.319,652.806 127.764,698.851 140.389,699.596 169.352,686.226 173.809,673.601 182.721,678.802 181.233,686.971 173.064,688.459 "
   style="fill:#f1f1f8;fill-opacity:1" />

   <path
   id="path114"
   fill="#fcc917"
   d="m 138.901,773.85 11.1368,-8.90277 18.5703,-25.9948 9.65764,5.9451 31.1868,65.3397 15.594,-40.0992 13.3688,5.20044 -23.7623,39.3647 -13.3688,-1.48847 -16.3375,-29.7074 -7.4245,15.594 -20.0497,-16.3383 -2.96759,-14.1038 -5.94539,11.8817 3.71254,7.42479 c -15.2351,-5.14772 -23.3955,2.27679 -17.8169,37.8763 -10.0344,-11.8363 -41.2299,-24.4627 -16.3372,-52.7346 l 3.71197,2.23228 2.22406,-11.137 c -18.9383,-28.1738 0.36794,-33.3748 10.402,-31.1956 v 40.843 h 4.44501 v 0 z"
   style="fill:#f1f1f8;fill-opacity:1" />

   <path
   id="path115"
   fill="#fcc917"
   d="m 261.431,734.494 c 18.9292,20.8474 -7.80151,63.1709 5.20044,75.7423 -15.234,11.9344 -52.3658,19.3601 -37.1307,57.1805 3.47924,-7.53165 -0.37672,-14.8045 8.16917,-20.0497 58.2843,29.7522 -31.5635,76.5403 -35.6434,5.20158 0.36794,-17.0371 30.8098,-36.3421 31.93,-55.6931 20.418,-18.5165 17.441,-39.3109 11.8817,-50.5006 l 15.5928,-11.8809 z"
   style="fill:#f1f1f8;fill-opacity:1" />

   <path
   id="path116"
   fill="#fcc917"
   d="m 674.845,212.028 c -14.4283,-1.97206 -10.0072,14.0777 -9.96236,23.2424 -9.45156,-7.50558 -18.3013,-19.1265 -13.8356,-43.166 l -6.12425,6.33005 -6.05197,-0.79852 c -3.36246,9.10176 -7.82844,19.2969 -0.036,34.558 -12.7783,-2.52907 -36.0196,-15.2623 -29.8862,-44.8336 l -13.8353,4.43027 c -11.1101,25.6989 8.84976,30.9886 20.5152,41.8124 -18.3013,3.01266 -36.5658,7.44265 -53.1272,-22.1295 -35.4546,54.4725 9.36057,106.497 30.9886,131.156 l -24.9466,5.77446 c -16.0506,-19.9247 -27.1602,-32.9618 -37.0777,-63.6375 -22.1389,-86.8876 44.1887,-113.518 75.2221,-119.294 48.7434,-3.01266 65.3499,14.1494 87.4797,35.7245 29.886,35.9745 32.6387,108.929 -45.9281,152.192 -14.436,14.0774 -67.5644,11.8636 -66.4072,123.966 -10.0074,-12.4914 -41.5519,-26.3268 -25.4662,-71.9408 -3.35339,3.5606 -25.4469,3.86419 -16.0055,56.1952 -43.202,-36.2795 -6.67984,-62.839 -3.87298,-69.7255 -11.6566,2.4565 -21.0634,3.56797 -29.8865,27.1154 -9.44249,-77.2313 70.2275,-49.9632 115.115,-81.9023 93.4892,-50.6713 74.6677,-100.483 53.1295,-125.069 z"
   style="fill:#f1f1f8;fill-opacity:1" />

   <polygon
   id="polygon116"
   fill="#fcc917"
   points="372.082,129.812 365.491,142.85 424.707,186.016 444.076,180.484 "
   style="fill:#f1f1f8;fill-opacity:1" />

  </g>
  </g>
</svg>
