<?xml version="1.0" encoding="UTF-8" standalone="no"?>
<!-- Created with Inkscape (http://www.inkscape.org/) -->

<svg
   width="330.20328mm"
   height="341.83832mm"
   viewBox="0 0 330.20328 341.83832"
   version="1.1"
   id="svg1"
   xml:space="preserve"
   xmlns:inkscape="http://www.inkscape.org/namespaces/inkscape"
   xmlns:sodipodi="http://sodipodi.sourceforge.net/DTD/sodipodi-0.dtd"
   xmlns="http://www.w3.org/2000/svg"
   xmlns:svg="http://www.w3.org/2000/svg"><sodipodi:namedview
     id="namedview1"
     pagecolor="#ffffff"
     bordercolor="#000000"
     borderopacity="0.25"
     inkscape:showpageshadow="2"
     inkscape:pageopacity="0.0"
     inkscape:pagecheckerboard="0"
     inkscape:deskcolor="#d1d1d1"
     inkscape:document-units="mm"
     inkscape:zoom="6.6813973"
     inkscape:cx="364.07055"
     inkscape:cy="842.41361"
     inkscape:window-width="3753"
     inkscape:window-height="2083"
     inkscape:window-x="0"
     inkscape:window-y="0"
     inkscape:window-maximized="1"
     inkscape:current-layer="layer1"><inkscape:page
       x="-1.9291353e-13"
       y="0"
       width="330.20331"
       height="341.83832"
       id="page2"
       margin="0"
       bleed="0" /></sodipodi:namedview><defs
     id="defs1" /><g
     inkscape:label="Layer 1"
     inkscape:groupmode="layer"
     id="layer1"
     transform="translate(394.14805,197.21357)"><rect
       style="fill:#ffffff;fill-opacity:1;stroke:#000000;stroke-width:0.191869;stroke-linecap:round"
       id="rect61"
       width="330.01144"
       height="341.64645"
       x="-394.05212"
       y="-197.11763"
       inkscape:export-filename="TAKflighticon.png"
       inkscape:export-xdpi="96"
       inkscape:export-ydpi="96" /><path
       style="fill:#000000"
       d="m -230.8594,131.31784 c -1.08309,-0.67442 -4.05284,-2.412 -6.59945,-3.86128 -2.54662,-1.44927 -5.85305,-3.3657 -7.34762,-4.25872 -1.49458,-0.89302 -3.22099,-1.90987 -3.83646,-2.25967 -0.61548,-0.34979 -2.30967,-1.41063 -3.76488,-2.35741 -1.45521,-0.94678 -3.65787,-2.38016 -4.89479,-3.18529 -3.92404,-2.55419 -11.74922,-8.2475 -16.57576,-12.0599 -0.74922,-0.59179 -2.11844,-1.66942 -3.04271,-2.39473 -0.92427,-0.7253 -2.63299,-2.128885 -3.79716,-3.119065 -1.16417,-0.99019 -2.93333,-2.48035 -3.93147,-3.31147 -4.63047,-3.85566 -17.43926,-16.4349 -22.39457,-21.99324 -3.94505,-4.42512 -4.94006,-5.61097 -7.9375,-9.45983 -0.3638,-0.46714 -1.37584,-1.76443 -2.24896,-2.88287 -2.68846,-3.4438 -4.27472,-5.67071 -8.24953,-11.5812 -1.64739,-2.44966 -2.99526,-4.51881 -2.99526,-4.59811 0,-0.0793 -0.47625,-0.8419 -1.05834,-1.69465 -0.58208,-0.85275 -1.05833,-1.61264 -1.05833,-1.68863 0,-0.076 -0.59531,-1.08808 -1.32292,-2.24906 -0.7276,-1.16099 -1.32291,-2.17408 -1.32291,-2.25132 0,-0.0772 -0.29081,-0.60112 -0.64625,-1.16416 -2.0144,-3.19103 -8.25048,-15.6619 -10.86108,-21.71994 -0.53304,-1.23693 -1.13851,-2.62414 -1.3455,-3.08269 -0.20699,-0.4585603 -0.37634,-0.9063403 -0.37634,-0.9950703 0,-0.0887 -0.22571,-0.66606 -0.50158,-1.28294 -0.7013,-1.56821 -2.01284,-4.86273 -2.50044,-6.28097 -0.22513,-0.65483999 -1.0773,-3.09562 -1.8937,-5.42395 -2.08117,-5.93541 -3.84138,-11.3539397 -4.38345,-13.4937497 -0.11059,-0.43657 -0.44063,-1.62719 -0.73343,-2.64584 -0.76468,-2.66038 -1.62038,-5.83818 -2.06611,-7.67292 -0.21211,-0.87312 -0.49401,-2.00421 -0.62644,-2.51354 -0.13243,-0.50932 -0.41321,-1.69994 -0.62396,-2.64583 -1.3406,-6.0168 -1.83393,-8.29642 -2.17583,-10.05417 -0.21229,-1.0914 -0.50158,-2.57968 -0.64285,-3.30729 -0.14128,-0.7276 -0.4452,-2.39448 -0.67539,-3.70417 -0.23019,-1.30968 -0.53395,-3.03609 -0.67502,-3.83645 -0.39925,-2.2652 -1.0214,-6.53294 -1.29212,-8.86355 -0.13523,-1.16416 -0.31706,-2.53338 -0.40406,-3.0427 -0.26336,-1.54177 -0.61572,-4.7178 -0.89531,-8.0698 -0.14565,-1.74625 -0.38643,-4.24656 -0.53507,-5.55625 -0.14863,-1.30968 -0.3173,-3.39328 -0.37482,-4.6302 -0.0575,-1.23693 -0.16969,-2.42756 -0.24926,-2.64584 -0.0796,-0.21828 -0.21349,-2.83765 -0.29758,-5.82083 -0.0841,-2.98318 -0.2824,-8.221935 -0.4407,-11.641675 -0.27273,-5.89163 -0.22881,-12.29804 0.14962,-21.82812 0.0925,-2.32834 0.25145,-7.76957 0.35332,-12.09163 0.11033,-4.68069 0.29331,-7.9663 0.45252,-8.12542 0.15444,-0.15435 2.16534,-0.28963 4.7625,-0.32039 2.47236,-0.0293 6.16208,-0.15274 8.19937,-0.27432 3.46125,-0.20657 5.49394,-0.35212 13.89062,-0.9946 1.81901,-0.13919 4.14073,-0.37713 5.15938,-0.52877 1.01864,-0.15164 2.32833,-0.33593 2.91042,-0.40952 4.49181,-0.56791 7.35783,-0.96595 8.59895,-1.19425 1.34484,-0.24738 3.59821,-0.62205 7.9375,-1.31979 0.94589,-0.15209 1.89839,-0.3453 2.11667,-0.42936 0.21828,-0.0841 0.93266,-0.25552 1.5875,-0.38102 1.89602,-0.36337 4.80319,-0.98967 5.95313,-1.2825 0.58208,-0.14823 1.83224,-0.44505 2.77812,-0.6596 0.94589,-0.21455 2.19604,-0.52614 2.77813,-0.69241 0.58208,-0.16628 1.58786,-0.41453 2.23507,-0.55167 0.64721,-0.13714 1.54018,-0.36431 1.98438,-0.50482 0.44419,-0.14052 1.40294,-0.42432 2.13055,-0.63068 3.84987,-1.09187 4.61715,-1.31821 5.95312,-1.75613 0.80037,-0.26235 2.16959,-0.68687 3.04271,-0.94337 0.87313,-0.25651 1.70656,-0.55215 1.85208,-0.65699 0.14552,-0.10484 0.68131,-0.27765 1.19063,-0.38401 0.50932,-0.10637 1.0451,-0.27375 1.19062,-0.37195 0.14552,-0.0982 0.97896,-0.40387 1.85209,-0.67927 0.87312,-0.2754 1.70656,-0.58161 1.85208,-0.68046 0.14552,-0.0989 0.60514,-0.26125 1.02139,-0.36088 0.41624,-0.0996 1.24967,-0.39931 1.85208,-0.66595 0.6024,-0.26665 2.16684,-0.87142 3.47653,-1.34394 1.30969,-0.47252 2.49436,-0.96316 2.6326,-1.09032 0.13825,-0.12716 0.41791,-0.23119 0.62148,-0.23119 0.20356,0 0.80483,-0.19074 1.33614,-0.42386 0.53132,-0.23311 1.20416,-0.52095 1.4952,-0.63963 0.29104,-0.11868 1.18401,-0.51431 1.98437,-0.87917 0.80037,-0.36487 2.16959,-0.98029 3.04271,-1.36759 2.87979,-1.27744 3.41186,-1.52081 6.48229,-2.96506 1.67349,-0.78717 3.57849,-1.71122 4.23334,-2.05346 0.65484,-0.34224 3.0505,-1.56579 5.32368,-2.719 2.27318,-1.15322 4.49421,-2.35393 4.93563,-2.66825 0.44142,-0.31431 0.88855,-0.57148 0.99361,-0.57148 0.17694,0 1.27471,-0.6416 6.85162,-4.00444 l 2.09725,-1.26463 1.73921,0.9502 c 0.95656,0.52261 2.03686,1.15601 2.40066,1.40755 0.61718,0.42673 3.38243,2.01681 6.28755,3.61549 0.6892,0.37925 1.38051,0.78951 1.53626,0.91167 0.6378,0.50026 12.8458,6.58624 13.21147,6.58624 0.21779,0 0.39597,0.09 0.39597,0.2 0,0.10999 0.38696,0.36479 0.8599,0.56622 0.47294,0.20143 1.45521,0.63133 2.18281,0.95533 1.60478,0.71463 3.77743,1.66624 4.49792,1.97009 0.29104,0.12273 0.96388,0.41389 1.49519,0.64701 0.53132,0.23312 1.08562,0.42385 1.23177,0.42385 0.14616,0 0.72348,0.23281 1.28293,0.51735 0.55946,0.28454 1.96969,0.89213 3.13386,1.3502 1.16417,0.45807 2.49185,0.99917 2.9504,1.20244 0.45856,0.20328 0.96619,0.36959 1.12807,0.36959 0.16189,0 0.53085,0.11907 0.81991,0.26459 1.28192,0.64533 1.51984,0.73735 2.38635,0.92295 0.50454,0.10807 1.03642,0.28604 1.18194,0.39551 0.14552,0.10946 0.91942,0.39972 1.71979,0.64502 0.80036,0.2453 1.64891,0.55056 1.88566,0.67837 0.23674,0.1278 0.86314,0.31354 1.39198,0.41275 0.52885,0.0992 1.02678,0.28595 1.10652,0.41497 0.0797,0.12903 0.42859,0.23459 0.77521,0.23459 0.34663,0 0.69741,0.10871 0.77953,0.24156 0.0821,0.13286 0.65468,0.32492 1.27238,0.42679 0.6177,0.10188 1.24216,0.27486 1.38768,0.3844 0.14552,0.10954 0.56224,0.26819 0.92604,0.35257 0.3638,0.0844 1.25677,0.33356 1.98437,0.55374 2.5521,0.77228 6.36396,1.80978 7.80521,2.12439 0.80037,0.1747 1.63381,0.38931 1.85209,0.47689 0.21828,0.0876 0.75406,0.23516 1.19062,0.32795 0.97577,0.20738 3.86316,0.87099 5.29167,1.21618 0.58208,0.14065 1.89177,0.42468 2.91042,0.63118 1.01864,0.20649 2.68552,0.56429 3.70416,0.7951 2.06523,0.46796 3.23044,0.67357 11.37709,2.00761 0.87312,0.14297 2.77812,0.38507 4.23333,0.538 1.45521,0.15292 3.06255,0.38033 3.57187,0.50535 3.31607,0.81396 23.56291,2.37589 30.857714,2.38051 2.665727,0.002 3.8163,0.0972 4.011184,0.3331 0.299292,0.36222 0.381425,2.532 0.82376,21.76198 0.355744,15.46554 -0.116167,35.997495 -1.003406,43.656255 -0.419262,3.61912 -0.85482,8.00463 -0.985417,9.92187 -0.06443,0.94589 -0.184771,2.07698 -0.267424,2.51354 -0.08265,0.43657 -0.320839,2.16297 -0.529305,3.83646 -0.208465,1.67349 -0.484299,3.69755 -0.612964,4.49792 -0.128664,0.80036 -0.422662,2.70536 -0.653328,4.23333 -0.230666,1.52797 -0.530214,3.37344 -0.665661,4.10104 -0.135448,0.72761 -0.42832,2.39448 -0.650825,3.70417 -0.222506,1.30969 -0.524952,2.97656 -0.672101,3.70417 -0.14715,0.7276 -0.456973,2.27541 -0.688495,3.43958 -0.587863,2.95596 -1.107854,5.37152 -1.423905,6.61458 -0.147996,0.58209 -0.458149,1.89178 -0.68923,2.91042 -0.463365,2.04259 -0.68505,2.93198 -1.318984,5.29167 -0.234566,0.87312 -0.587953,2.24234 -0.785303,3.04271 -0.19736,0.80036 -0.48104,1.87192 -0.63042,2.38125 -0.14938,0.50932 -0.40797,1.46182 -0.57466,2.11666 -0.16668,0.65485 -0.40005,1.42875 -0.51859,1.7198 -0.11855,0.29104 -0.41514,1.24354 -0.65909,2.11666 -0.24395,0.87313 -0.54317,1.82563 -0.66493,2.11667 -0.12176,0.29104 -0.71573,2.01745 -1.31992,3.8364597 -0.6042,1.81901 -1.19676,3.54541 -1.31681,3.83646 -0.12004,0.29104 -0.59962,1.60072 -1.06572,2.91041 -0.46611,1.30969001 -0.95545,2.58800001 -1.08744,2.84068 -0.13199,0.25269 -0.23997,0.585 -0.23997,0.73847 0,0.31136 -3.24564,8.5006903 -4.34885,10.9729403 -0.38962,0.87312 -0.8137,1.82562 -0.9424,2.11666 -0.56897,1.28673 -3.7757,8.02593 -4.21755,8.86354 -0.26868,0.50933 -1.03708,1.96784 -1.70756,3.24115 -2.88296,5.475 -3.61978,6.83071 -4.76762,8.77219 -0.66767,1.12932 -1.21394,2.16253 -1.21394,2.29603 0,0.13349 -0.10518,0.24272 -0.23373,0.24272 -0.12855,0 -0.30904,0.20836 -0.4011,0.46302 -0.20036,0.55425 -0.32519,0.76606 -2.62859,4.46001 -0.98847,1.5852 -1.93849,3.1203 -2.11117,3.41134 -0.17267,0.29104 -0.38519,0.5887 -0.47227,0.66146 -0.0871,0.0728 -0.67937,0.96573 -1.31622,1.98438 -0.63684,1.01864 -1.25164,1.97114 -1.3662,2.11666 -0.35875,0.4557 -1.59255,2.15147 -3.37697,4.64138 -3.3015,4.60677 -9.01183,11.81993 -11.6203,14.67849 -0.6666,0.73051 -1.97977,2.21879 -2.91817,3.30729 -2.1258,2.46584 -13.83717,14.16507 -17.21048,17.19264 -1.37818,1.23692 -3.04355,2.73213 -3.70081,3.32268 -1.59492,1.43302 -7.27633,6.143485 -8.60327,7.132985 -0.94748,0.70653 -3.36241,2.61934 -4.18439,3.31434 -1.21195,1.02475 -8.85584,6.56442 -12.61675,9.1436 -5.15901,3.53797 -17.08579,10.95305 -17.61743,10.95305 -0.0475,0 -0.65716,0.33601 -1.35478,0.74668 -1.05563,0.62142 -3.45296,1.94966 -6.03092,3.34143 -1.33156,0.71888 -4.53889,2.65641 -4.90992,2.96606 -0.34874,0.29105 -0.7144,0.15555 -2.38125,-0.88237 z m 4.53974,-18.62188 c 1.04427,-0.57402 1.94463,-1.04367 2.00081,-1.04367 0.0562,0 0.85622,-0.47625 1.77789,-1.05833 0.92166,-0.58208 1.81171,-1.05833 1.97789,-1.05833 0.16617,0 0.30213,-0.11104 0.30213,-0.24676 0,-0.13571 0.26789,-0.32812 0.59532,-0.42758 0.32742,-0.0995 0.97432,-0.46467 1.43755,-0.81158 0.46323,-0.34691 0.90741,-0.63075 0.98705,-0.63075 0.66921,0 16.23785,-10.579595 20.42745,-13.881365 0.74506,-0.58717 2.70959,-2.13786 4.36562,-3.44597 1.65604,-1.30811 3.13004,-2.47131 3.27556,-2.58488 0.14552,-0.11358 0.62177,-0.50996 1.05833,-0.88084 0.43656,-0.37089 1.46813,-1.20107 2.29238,-1.84487 0.82425,-0.64379 1.53863,-1.26074 1.5875,-1.37099 0.0782,-0.17632 1.7328,-1.63505 4.71803,-4.15943 3.47358,-2.93734 18.35626,-18.42958 20.96422,-21.82286 0.39781,-0.5176 1.17188,-1.49995 1.72016,-2.18302 6.19283,-7.71516 11.85586,-15.89543 17.82053,-25.74183 1.13774,-1.87815 1.65768,-2.81615 3.8886,-7.01519 0.65718,-1.23693 1.35495,-2.54662 1.55061,-2.91042 0.19567,-0.3638 0.35649,-0.80036 0.35738,-0.97014 9e-4,-0.16977 0.10055,-0.34837 0.22145,-0.39687 0.2021,-0.0811 1.0575,-1.78432 2.7683,-5.51216 0.36731,-0.80036 1.03587,-2.25391 1.48569,-3.2301103 0.44983,-0.9762 0.81786,-1.83109 0.81786,-1.89977 0,-0.0687 0.35719,-0.89657 0.79375,-1.83976 0.43656,-0.9432 0.79375,-1.82219 0.79375,-1.95332 0,-0.13113 0.29766,-0.85543 0.66146,-1.60955 0.3638,-0.75413 0.66146,-1.52650999 0.66146,-1.71639999 0,-0.18989 0.0991,-0.45836 0.22022,-0.59661 0.12112,-0.13824 0.72536,-1.62057001 1.34275,-3.29406001 0.61739,-1.67349 1.24548,-3.34036 1.39576,-3.70417 0.15027,-0.3638 0.48874,-1.3163 0.75215,-2.11666 0.26341,-0.8003697 0.8337,-2.4672397 1.26731,-3.7041697 0.88507,-2.52475 2.11703,-6.33921 2.43542,-7.54062 0.11569,-0.43657 0.57696,-2.06926 1.02504,-3.62821 0.44808,-1.55894 0.92858,-3.28535 1.06778,-3.83645 0.13921,-0.55111 0.38616,-1.47826 0.54878,-2.06035 0.16262,-0.58208 0.45659,-1.7727 0.65327,-2.64583 0.19667,-0.87312 0.55401,-2.3614 0.79407,-3.30729 0.49059,-1.93298 0.77683,-3.20557 1.36877,-6.08542 0.22433,-1.0914 0.52081,-2.52015 0.65884,-3.175 0.27924,-1.32478 0.88748,-4.65114 1.2579,-6.87916 0.13307,-0.80037 0.31542,-1.75287 0.40522,-2.11667 0.16105,-0.65241 0.35493,-1.94955 1.10731,-7.40833 0.2106,-1.52797 0.49168,-3.55204 0.62463,-4.49792 0.13294,-0.94589 0.36977,-3.26761 0.52629,-5.15938 0.15652,-1.89177 0.40162,-4.10159 0.54466,-4.91071 0.14304,-0.80913 0.26247,-2.17835 0.2654,-3.04271 0.003,-0.86437 0.11804,-2.34548 0.25581,-3.29137 0.13777,-0.94588 0.31772,-3.56526 0.39988,-5.82083 0.0822,-2.25557 0.27244,-5.05354 0.42285,-6.21771 0.17155,-1.32787 0.2424,-8.427035 0.19011,-19.050005 l -0.0833,-16.93333 -4.49791,-0.31884 c -2.47386,-0.17536 -5.62901,-0.44319 -7.01146,-0.59518 -5.96878,-0.65622 -9.77239,-1.10055 -11.37709,-1.32905 -3.87831,-0.55226 -7.35285,-1.07615 -8.59895,-1.29654 -0.72761,-0.12869 -2.27542,-0.37979 -3.43959,-0.55801 -1.16416,-0.17822 -2.35479,-0.41778 -2.64583,-0.53236 -0.29104,-0.11458 -1.36261,-0.33025 -2.38125,-0.47927 -1.01865,-0.14901 -2.38787,-0.40025 -3.04271,-0.5583 -0.65484,-0.15805 -2.02406,-0.45963 -3.04271,-0.67018 -1.01864,-0.21054 -2.32833,-0.49605 -2.91042,-0.63447 -0.58208,-0.13841 -1.7727,-0.39298 -2.64583,-0.56571 -0.87312,-0.17273 -1.82562,-0.40986 -2.11667,-0.52695 -0.52973,-0.21313 -4.24328,-1.14738 -6.48229,-1.63081 -0.65484,-0.14139 -1.42875,-0.35622 -1.71979,-0.4774 -0.87567,-0.36461 -3.34207,-1.07173 -3.73814,-1.07173 -0.20354,0 -0.57682,-0.10719 -0.82951,-0.23821 -0.25269,-0.13102 -1.17381,-0.44349 -2.04693,-0.69438 -0.87313,-0.2509 -1.7812,-0.55228 -2.01795,-0.66973 -0.23675,-0.11746 -0.86314,-0.29473 -1.39199,-0.39395 -0.52884,-0.0992 -1.02678,-0.28595 -1.10652,-0.41497 -0.0797,-0.12902 -0.42858,-0.23459 -0.77521,-0.23459 -0.34662,0 -0.69547,-0.10556 -0.77521,-0.23459 -0.0797,-0.12902 -0.59279,-0.31827 -1.1401,-0.42055 -0.54731,-0.10228 -1.11417,-0.2698 -1.25969,-0.37228 -0.14552,-0.10247 -0.91943,-0.39958 -1.71979,-0.66024 -0.80037,-0.26067 -1.69333,-0.5703 -1.98438,-0.68807 -0.29104,-0.11777 -1.12448,-0.41655 -1.85208,-0.66395 -0.7276,-0.2474 -1.6981,-0.61719 -2.15665,-0.82174 -0.45856,-0.20455 -0.94221,-0.37191 -1.07479,-0.37191 -0.13257,0 -0.71792,-0.2304 -1.30076,-0.512 -0.58285,-0.2816 -1.38024,-0.59245 -1.77199,-0.69077 -0.39175,-0.0983 -0.7777,-0.28464 -0.85767,-0.41404 -0.08,-0.1294 -0.30867,-0.23528 -0.50821,-0.23528 -0.19954,0 -1.13451,-0.35718 -2.0777,-0.79375 -0.9432,-0.43656 -1.78141,-0.79375 -1.8627,-0.79375 -0.0813,0 -0.83594,-0.30654 -1.677,-0.6812 -0.84106,-0.37466 -1.88638,-0.8405 -2.32295,-1.03519 -0.43656,-0.19469 -1.56765,-0.70582 -2.51354,-1.13584 -0.94588,-0.43002 -2.3151,-1.04954 -3.04271,-1.3767 -2.58836,-1.16385 -11.15622,-5.52335 -13.89062,-7.06782 -0.50933,-0.28768 -1.64042,-0.91701 -2.51354,-1.39851 -0.87313,-0.48149 -1.82236,-1.03672 -2.1094,-1.23384 -0.77524,-0.53238 -1.87876,-0.43589 -2.98909,0.26136 -1.10064,0.69116 -3.15692,1.83807 -5.35256,2.98543 -0.80036,0.41824 -1.49489,0.84974 -1.5434,0.95888 -0.0485,0.10914 -0.2271,0.19917 -0.39687,0.20006 -0.16978,9e-4 -0.66587,0.19283 -1.10243,0.42651 -1.91972,1.02759 -8.60864,4.35326 -10.05417,4.99885 -0.87313,0.38994 -2.36141,1.06644 -3.30729,1.50332 -0.94589,0.43688 -1.95792,0.89342 -2.24896,1.01453 -1.13386,0.47184 -4.25696,1.88458 -4.69277,2.12279 -0.25268,0.13812 -0.58069,0.25112 -0.7289,0.25112 -0.14821,0 -0.88648,0.29766 -1.64061,0.66146 -0.75412,0.3638 -1.47554,0.66146 -1.60315,0.66146 -0.12761,0 -0.84947,0.28125 -1.60413,0.62501 -0.75466,0.34375 -1.66977,0.70842 -2.03357,0.81038 -0.68836,0.19291 -1.07108,0.3427 -2.68582,1.05118 -0.53131,0.23311 -1.13258,0.42385 -1.33614,0.42385 -0.20357,0 -0.48323,0.098 -0.62148,0.21771 -0.13824,0.11974 -0.99549,0.44714 -1.905,0.72755 -0.9095,0.28041 -1.65364,0.58394 -1.65364,0.67451 0,0.0906 -0.50011,0.24465 -1.11135,0.34239 -0.61125,0.0977 -1.23632,0.26979 -1.38907,0.38232 -0.15274,0.11254 -0.99208,0.42165 -1.86521,0.68692 -0.87312,0.26527 -1.82562,0.56801 -2.11666,0.67276 -0.29104,0.10476 -1.24354,0.3976 -2.11667,0.65077 -0.87312,0.25317 -1.79066,0.56526 -2.03897,0.69355 -0.2483,0.12828 -0.93555,0.31064 -1.52721,0.40525 -0.59167,0.0946 -1.13968,0.27545 -1.2178,0.40185 -0.0781,0.12641 -0.41283,0.22983 -0.74379,0.22983 -0.33096,0 -0.68918,0.0874 -0.79605,0.19431 -0.10688,0.10688 -0.81133,0.33224 -1.56546,0.50081 -1.9859,0.44391 -6.06712,1.4671 -6.53051,1.63724 -0.21828,0.0801 -1.05172,0.29495 -1.85209,0.47734 -0.80036,0.18239 -1.99099,0.46448 -2.64583,0.62687 -0.65484,0.16239 -2.02406,0.47302 -3.04271,0.6903 -1.01864,0.21727 -2.32833,0.50338 -2.91041,0.6358 -1.54751,0.35204 -4.94864,1.00758 -7.67292,1.47891 -3.79783,0.65706 -4.59501,0.78059 -12.83229,1.9885 -1.72852,0.25347 -7.04049,0.86549 -10.98021,1.26509 -1.16417,0.11808 -4.20026,0.36496 -6.74688,0.54863 -2.54661,0.18367 -4.76767,0.37211 -4.93568,0.41875 -0.17841,0.0495 -0.39853,1.05532 -0.52917,2.4179 -0.33088,3.45116 -0.252,26.72527 0.10925,32.231015 0.17186,2.61938 0.4369,7.26282 0.58899,10.31875 0.15208,3.05594 0.39381,5.82975 0.53718,6.16402 0.14338,0.33426 0.26083,1.22723 0.261,1.98437 5.1e-4,2.17715 1.27347,13.20637 2.11329,18.30995 0.11973,0.7276 0.41113,2.51354 0.64756,3.96875 0.23644,1.45521 0.54516,3.24114 0.68606,3.96875 0.1409,0.7276 0.42521,2.27541 0.63179,3.43958 0.61409,3.46054 1.49808,7.63514 1.73681,8.20208 0.12256,0.29105 0.36416,1.24355 0.53689,2.11667 0.32602,1.64799 0.47098,2.27537 1.1921,5.15938 0.23651,0.94588 0.49611,2.07698 0.57688,2.51354 0.0808,0.43656 0.23751,0.91281 0.3483,1.05833 0.11078,0.14552 0.28788,0.80037 0.39354,1.45521 0.10567,0.65484 0.28277,1.30969 0.39355,1.45521 0.11079,0.14552 0.26457,0.62177 0.34173,1.05833 0.0772,0.43656 0.33932,1.4486 0.58255,2.24896 0.24324,0.80036 0.56479,1.99099 0.71457,2.64583 0.14977,0.65485 0.37884,1.30374 0.50902,1.44198 0.13019,0.13825 0.23671,0.46728 0.23671,0.7312 0,0.26391 0.11208,0.68658 0.24907,0.93927 0.13699,0.25268 0.45419,1.1738 0.70488,2.04693 0.25069,0.87312 0.54157,1.70656 0.64641,1.85208 0.10484,0.14552 0.27765,0.6813 0.38401,1.19063 0.10637,0.50932 0.28196,1.0451 0.3902,1.19062 0.10824,0.14552 0.26836,0.6427697 0.35582,1.1050097 0.0874,0.46223 0.38673,1.3552 0.66507,1.98437 0.27833,0.62918 0.89337,2.21552 1.36675,3.52521 0.47338,1.30968 1.02429,2.75643 1.22424,3.21498001 0.19995,0.45856 0.36355,0.90151 0.36355,0.98435 0,0.0828 0.29766,0.80134999 0.66146,1.59669999 0.3638,0.79536 0.66146,1.51456 0.66146,1.59823 0,0.0837 0.22834,0.65685 0.50742,1.27372 0.27908,0.61688 0.87439,1.93358 1.32292,2.926 0.44852,0.99242 0.81549,1.85847 0.81549,1.92456 0,0.5538603 6.69189,13.8435703 9.04702,17.9668703 1.41927,2.48482 6.55881,10.78793 6.79664,10.98021 0.09,0.0728 0.28269,0.33743 0.42822,0.58815 0.42061,0.72468 3.82609,5.66596 4.31712,6.26406 0.24496,0.29837 0.72118,0.93252 1.05827,1.40921 0.5635,0.79686 2.51739,3.38906 5.04336,6.69098 0.92497,1.20911 5.03791,6.19221 5.70577,6.91292 0.1538,0.16597 0.87496,0.99552 1.60256,1.84343 2.50088,2.91441 15.84882,16.44858 16.80515,17.03962 0.12582,0.0778 1.02812,0.85315 2.0051,1.72307 3.94072,3.50888 6.55701,5.72626 7.62353,6.46114 0.30455,0.20985 0.62297,0.4821 0.70761,0.605 0.0846,0.1229 0.51741,0.48699 0.96172,0.80909 0.4443,0.32209 1.80357,1.35953 3.0206,2.30542 2.5749,2.00123 2.43465,1.89723 7.69501,5.70614 2.22408,1.61041 5.47253,3.858115 7.21878,4.994905 1.74625,1.13679 3.82985,2.5103 4.63021,3.05224 1.9942,1.3503 8.71014,5.29671 9.01386,5.29671 0.13561,0 0.24656,0.10517 0.24656,0.23372 0,0.12855 0.20836,0.30369 0.46302,0.38919 0.25466,0.0855 0.64161,0.2746 0.85989,0.4202 0.86193,0.57493 3.8592,2.31769 4.23334,2.46147 0.56391,0.21671 1.05413,0.0425 3.20169,-1.138 z m -55.06003,-63.719455 c -5.86693,-2.10884 -9.47694,-8.7664 -8.3377,-15.37629 0.11287,-0.65485 0.67905,-2.19355 1.25818,-3.41935 1.27907,-2.70727 3.29411,-4.84241 5.62431,-5.95951 0.87313,-0.41857 1.79425,-0.86082 2.04693,-0.98276 0.25269,-0.12194 0.7502,-0.22172 1.10558,-0.22172 0.99098,0 1.40604,-0.624 1.61551,-2.42874 0.10539,-0.90806 0.28553,-1.8344 0.40032,-2.05853 0.11479,-0.22413 0.41623,-1.00283 0.66986,-1.73043 1.0716,-3.07408 4.23204,-6.9876503 7.1102,-8.8045503 3.80148,-2.39976 5.36882,-2.83549 10.20265,-2.83637 3.66097,-6.7e-4 4.28558,0.0668 5.82083,0.62845 0.94589,0.34606 1.93576,0.74128 2.19973,0.87826 0.63769,0.33092 1.03472,-0.0249 2.08597,-1.86919 1.55076,-2.7207 5.85862,-6.67318 9.34034,-8.5698 1.69802,-0.92497 4.79426,-2.04868 5.64487,-2.04868 0.25686,0 0.61583,-0.14883 0.79773,-0.33073 0.43616,-0.43617 8.25138,-0.46826 8.79632,-0.0361 0.20432,0.16203 0.88271,0.37263 1.50753,0.468 0.62482,0.0954 1.3392,0.2802 1.5875,0.41075 0.24831,0.13055 0.92772,0.43252 1.5098,0.67105 2.74368,1.1243 5.53903,2.90885 7.63327,4.87307001 1.03235,0.96826999 4.40527,5.12614999 4.40527,5.43048999 0,0.0911 0.27273,0.60979 0.60605,1.1526 0.33333,0.54281 0.82384,1.52271 1.09001,2.17756 0.26618,0.65484 0.58826,1.4287503 0.71573,1.7197903 0.12748,0.29104 0.32624,1.00221 0.44171,1.58036 l 0.20993,1.0512 4.88444,0.0259 c 4.23598,0.0224 5.06005,0.0964 6.20734,0.55699 4.53245,1.81962 6.78783,3.60952 8.67514,6.88468 1.55052,2.69072 2.22783,6.43255 1.45918,8.0613 l -0.31672,0.67114 -27.7181,0.16721 c -29.96672,0.18078 -28.97487,0.12799 -29.935,1.59332 -0.87973,1.34264 -0.38434,3.69193 0.91553,4.34177 1.27104,0.63543 2.62732,0.72709 8.68768,0.58714 3.41974,-0.079 18.74084,-0.17179 34.0469,-0.20626 l 27.82918,-0.0627 1.16271,1.13231 c 2.73927,2.66766 2.67505,6.52217 -0.16065,9.64219 -0.70582,0.7766 -1.44997,1.41199 -1.65364,1.41199 -0.20368,0 -0.37033,0.10337 -0.37033,0.22972 0,0.12634 -0.69242,0.424 -1.53871,0.66146 -1.40147,0.39323 -6.24515,0.42858 -54.30573,0.39637 -47.8842,-0.0321 -52.8772,-0.075 -53.95765,-0.46334 z m 23.24959,-63.96929 c -0.27907,-0.33724 -0.36062,-1.54218 -0.35229,-5.20506 l 0.0108,-4.76622 0.74407,-0.54963 c 0.40924,-0.3023 1.72603,-1.32354 2.9262,-2.26943 1.20017,-0.94588 3.04378,-2.37463 4.0969,-3.175 1.05312,-0.80036 2.58896,-1.99989 3.41297,-2.66562 0.824,-0.66573 2.28145,-1.79683 3.23875,-2.51354 5.82827,-4.36351 5.80108,-4.33828 5.78648,-5.37008 -0.007,-0.52807 -0.12956,-1.79357 -0.2713,-2.81222 -0.48107,-3.45733 -1.03214,-11.87949 -1.27908,-19.54869 -0.29285,-9.09517 -0.19057,-8.80648 -2.70628,-7.63838 -1.8042,0.83773 -2.63449,1.21201 -5.12246,2.30912 -0.87313,0.38502 -2.06375,0.92324 -2.64584,1.19605 -1.99935,0.93706 -4.66724,2.11836 -4.78416,2.11836 -0.0644,0 -1.03833,0.43094 -2.16435,0.95764 -4.56208,2.13393 -5.32691,2.48195 -5.45459,2.48195 -0.0733,0 -1.14512,0.47625 -2.38177,1.05833 -1.23665,0.58208 -2.32206,1.05833 -2.41203,1.05833 -0.09,0 -1.28741,0.53578 -2.66098,1.19063 -1.37356,0.65484 -2.5639,1.19062 -2.6452,1.19062 -0.14104,0 -0.5691,0.18788 -4.21983,1.85209 -0.87313,0.39801 -2.18282,0.98616 -2.91042,1.307 -1.84519,0.81362 -2.65484,1.17635 -4.63021,2.0744 -0.94588,0.43002 -2.3151,1.04254 -3.04271,1.36115 -0.7276,0.31862 -1.79916,0.80356 -2.38125,1.07765 -0.58208,0.27409 -1.71317,0.78719 -2.51354,1.14023 -0.80036,0.35304 -2.02893,0.9026 -2.73014,1.22124 -0.7745,0.35195 -1.65726,0.54755 -2.24896,0.49832 l -0.97402,-0.081 -0.16898,-6.35 c -0.0929,-3.4925 -0.0676,-6.54224 0.0563,-6.77721 0.1239,-0.23496 1.68822,-1.51387 3.47627,-2.84202 1.78805,-1.32815 3.39658,-2.53654 3.57451,-2.68533 0.34349,-0.28723 9.51805,-6.99977 10.48369,-7.67036 0.31344,-0.21767 0.86632,-0.66416 1.22864,-0.99219 0.36231,-0.32804 0.8088,-0.59643 0.99219,-0.59643 0.18338,0 0.33343,-0.0938 0.33343,-0.20847 0,-0.11465 0.75517,-0.70496 1.67817,-1.3118 0.92299,-0.60683 1.83054,-1.28692 2.01677,-1.51132 0.18623,-0.2244 0.45159,-0.40799 0.58969,-0.40799 0.13809,0 0.41932,-0.16824 0.62494,-0.37386 0.30714,-0.30713 3.2263,-2.46158 10.42762,-7.69593 0.40041,-0.29104 1.07217,-0.76454 1.49281,-1.05223 0.42063,-0.28768 0.82432,-0.59625 0.89708,-0.6857 0.0728,-0.0895 2.33495,-1.75722 5.02709,-3.70613 2.69213,-1.94891 5.01385,-3.63598 5.15937,-3.74905 0.14552,-0.11306 1.39568,-1.02944 2.77813,-2.0364 1.38244,-1.00696 2.6357,-1.937905 2.785,-2.068755 0.1493,-0.13086 0.62555,-0.46375 1.05833,-0.73976 0.43278,-0.27601 0.84641,-0.5648 0.91917,-0.64175 0.0728,-0.077 0.60431,-0.49219 1.18123,-0.92276 2.17076,-1.6201 1.9866,-0.50643 2.00257,-12.10983 0.0118,-8.53346 0.10334,-11.09606 0.51308,-14.35639 0.77514,-6.16771 1.18729,-7.67227 3.11661,-11.37709 1.51339,-2.9061 2.9725,-4.49398 5.06726,-5.51443 3.16234,-1.54051 7.11195,1.29833 9.94879,7.15086 1.11926,2.30909 1.10862,2.28241 1.30327,3.26705 0.0997,0.50454 0.27879,1.15548 0.3979,1.44652 0.8811,2.15303 1.31962,8.09854 1.5161,20.55554 0.14936,9.46916 0.16695,9.72012 0.71617,10.21632 0.30968,0.27979 3.00384,2.2741 5.98702,4.431805 2.98318,2.1577 5.56567,4.04926 5.73888,4.20347 0.17321,0.1542 0.7449,0.57803 1.27042,0.94183 0.52552,0.3638 1.59562,1.13771 2.378,1.71979 0.78238,0.58209 2.81478,2.07037 4.51645,3.3073 1.70167,1.23692 3.82418,2.78473 4.71669,3.43958 0.89251,0.65484 3.27432,2.38125 5.29291,3.83646 2.01859,1.45521 4.2802,3.09241 5.0258,3.63823 0.7456,0.54581 1.77411,1.27376 2.28557,1.61766 0.51146,0.34389 1.09158,0.82005 1.28916,1.05812 0.19759,0.23808 0.52326,0.43286 0.72372,0.43286 0.20047,0 0.36471,0.0893 0.36499,0.19844 2.9e-4,0.10914 0.62536,0.61516 1.38907,1.12448 0.7637,0.50932 1.44808,0.99592 1.52084,1.08132 0.0728,0.0854 1.08479,0.85267 2.24896,1.70503 1.16416,0.85236 2.15635,1.64569 2.20486,1.76295 0.0485,0.11726 0.21138,0.2132 0.36194,0.2132 0.15057,0 0.70619,0.36133 1.23473,0.80295 0.52853,0.44162 1.08003,0.89076 1.22555,0.99809 0.14552,0.10732 2.05052,1.49997 4.23333,3.09477 2.18282,1.5948 4.1375,3.06207 4.34375,3.26061 0.31486,0.30309 0.32546,0.73301 0.0662,2.6807 -0.16987,1.27585 -0.30885,3.85732 -0.30885,5.7366 0,4.82876 -0.48707,5.34963 -3.65498,3.90864 -0.82742,-0.37637 -1.92112,-0.87054 -2.43044,-1.09815 -0.50932,-0.22761 -1.65744,-0.75311 -2.55137,-1.16778 -0.89393,-0.41466 -1.72737,-0.75451 -1.85208,-0.75522 -0.12472,-7.1e-4 -1.03766,-0.41743 -2.02876,-0.92604 -0.9911,-0.50862 -1.90552,-0.92475 -2.03206,-0.92475 -0.21258,0 -2.35084,-0.92494 -4.89719,-2.11837 -1.49322,-0.69984 -3.83322,-1.7314 -5.76101,-2.53968 -0.90603,-0.37987 -2.42123,-1.04133 -3.36711,-1.4699 -1.98155,-0.89782 -2.22364,-1.00594 -4.36563,-1.94961 -0.87312,-0.38466 -1.94469,-0.8591 -2.38125,-1.05429 -0.43656,-0.1952 -1.32953,-0.59075 -1.98437,-0.87901 -4.49165,-1.97716 -11.74926,-5.21504 -12.96459,-5.78398 -0.80036,-0.37467 -2.11005,-0.97262 -2.91042,-1.32877 -0.80036,-0.35616 -2.20708,-1.00459 -3.12603,-1.44098 -0.91895,-0.43638 -1.84169,-0.72786 -2.05052,-0.64772 -0.27468,0.1054 -0.3787,0.60535 -0.37611,1.80765 0.002,0.91407 -0.11744,3.62648 -0.26536,6.02757 -0.14792,2.4011 -0.40336,6.68735 -0.56765,9.525 -0.44853,7.74736 -0.691,11.10882 -0.90223,12.50805 -0.22957,1.52066 -0.0761,1.73289 2.78999,3.85868 2.20944,1.63874 2.09911,1.55432 3.59108,2.74754 0.59265,0.47398 1.4135,1.0999 1.82413,1.39094 0.41062,0.29104 1.11635,0.83061 1.56829,1.19904 0.45194,0.36843 1.53608,1.19486 2.40921,1.83651 0.87312,0.64165 1.62718,1.26294 1.67569,1.38065 0.0485,0.1177 0.21373,0.21401 0.36715,0.21401 0.15343,0 1.31757,0.82038 2.58697,1.82307 1.2694,1.00269 2.5627,1.95938 2.87399,2.12597 0.54845,0.29352 0.56599,0.46223 0.56599,5.44367 0,4.95567 -0.0201,5.15149 -0.55703,5.43887 -0.55507,0.29706 -2.00538,0.1594 -2.84898,-0.27044 -0.23675,-0.12062 -0.96623,-0.42439 -1.62108,-0.67503 -0.65484,-0.25064 -1.42875,-0.55693 -1.71979,-0.68064 -0.29104,-0.12371 -1.48166,-0.59142 -2.64583,-1.03936 -1.16417,-0.44794 -2.47385,-0.96945 -2.91042,-1.15892 -0.43656,-0.18946 -1.21047,-0.49536 -1.71979,-0.67977 -0.50932,-0.18441 -1.30122,-0.49993 -1.75978,-0.70115 -0.45855,-0.20122 -1.00029,-0.36585 -1.20385,-0.36585 -0.20357,0 -0.48323,-0.1 -0.62147,-0.22218 -0.13825,-0.1222 -0.66808,-0.37818 -1.1774,-0.56886 -0.50932,-0.19067 -1.28323,-0.49513 -1.71979,-0.67658 -3.13514,-1.30303 -4.91169,-1.97197 -5.23712,-1.97197 -0.25413,0 -0.48582,0.54516 -0.7028,1.65365 -0.49512,2.52951 -1.46909,4.34729 -2.51404,4.69216 -1.30087,0.42933 -2.04962,0.0164 -2.69894,-1.48827 -0.80962,-1.8762 -1.15023,-3.06554 -1.15023,-4.01643 0,-0.69853 -0.10091,-0.83958 -0.59531,-0.83213 -0.32742,0.005 -1.07156,0.23902 -1.65364,0.52019 -0.58209,0.28117 -1.14893,0.51525 -1.25966,0.52019 -0.11073,0.005 -0.70604,0.24124 -1.32292,0.52511 -0.61687,0.28387 -2.07409,0.88278 -3.23826,1.3309 -1.16416,0.44812 -2.35479,0.92401 -2.64583,1.05754 -0.29104,0.13353 -2.25557,0.90788 -4.36563,1.72078 -2.11005,0.81289 -4.07458,1.58377 -4.36562,1.71306 -0.29104,0.12929 -1.12448,0.44806 -1.85209,0.70839 -0.7276,0.26032 -1.62057,0.62602 -1.98437,0.81267 -0.92301,0.47353 -2.24747,0.42598 -2.67958,-0.0962 z"
       id="path60" /></g></svg>
